# xmcd
#
# Track frame offsets: 
#        150
#        19076
#        37660
#        50845
#        69917
#        87619
#        99480
#        114710
#        134540
#        150142
#        166175
#        181440
#        202511
#        221661
#        247682
#
# Disc length: 3568 seconds
#
# Revision: 2
# Processed by: cddbd v1.5.2PL0 Copyright (c) Steve Scherf et al.
# Submitted via: ExactAudioCopy v0.99pb5
#
DISCID=ba0dee0f
DTITLE=Various Artist - Body and Soul - TL BAS-04 - Night Moods - CD 2
DYEAR=2004
DGENRE=Pop
TTITLE0=Spinners - Could it be I'm falling in love
TTITLE1=Patrice Rushen - Forget me nots
TTITLE2=Percy Sledge - When a man loves a woman
TTITLE3=Bill Withers - Lovely day
TTITLE4=DeBarge - Rhythm of the night
TTITLE5=Johnny Mathis and Deniece Williams - Your'e all I need to get by
TTITLE6=Minnie Riperton - Lovin' you
TTITLE7=Commodores - Nightshift
TTITLE8=Dionne Warwick - All the love in the world
TTITLE9=Tavares - Heaven must be missing an angel
TTITLE10=Mica Paris and Will Downing - Where is the love
TTITLE11=Donna Summer - Dinner with Gershwin
TTITLE12=Peabo Bryson - If ever your'e in my arms again
TTITLE13=Randy Crawford - Imagine
TTITLE14=Manhattans - Kiss and say goodbye
EXTD=
EXTT0=
EXTT1=
EXTT2=
EXTT3=
EXTT4=
EXTT5=
EXTT6=
EXTT7=
EXTT8=
EXTT9=
EXTT10=
EXTT11=
EXTT12=
EXTT13=
EXTT14=
PLAYORDER=
